<svg width="160" height="28" viewBox="0 0 160 28" fill="none" xmlns="http://www.w3.org/2000/svg">
<path d="M0 12.8C0 8.31958 0 6.07937 0.871948 4.36808C1.63893 2.86278 2.86278 1.63893 4.36808 0.871948C6.07937 0 8.31958 0 12.8 0H147.2C151.68 0 153.921 0 155.632 0.871948C157.137 1.63893 158.361 2.86278 159.128 4.36808C160 6.07937 160 8.31958 160 12.8V15.2C160 19.6804 160 21.9206 159.128 23.6319C158.361 25.1372 157.137 26.3611 155.632 27.1281C153.921 28 151.68 28 147.2 28H12.8C8.31958 28 6.07937 28 4.36808 27.1281C2.86278 26.3611 1.63893 25.1372 0.871948 23.6319C0 21.9206 0 19.6804 0 15.2V12.8Z" fill="white" fill-opacity="0.1"/>
<path d="M22.3501 20.3562C22.2568 20.4481 22.1311 20.4998 22.0001 20.5C21.8673 20.4994 21.7398 20.448 21.6438 20.3562L18.9438 17.65C17.8067 18.6051 16.3447 19.0844 14.8628 18.9878C13.381 18.8912 11.9936 18.2263 10.99 17.1316C9.98645 16.037 9.44424 14.5972 9.47645 13.1125C9.50867 11.6278 10.1128 10.2129 11.1629 9.16277C12.213 8.11269 13.6279 7.50855 15.1126 7.47633C16.5973 7.44412 18.0371 7.98633 19.1317 8.98988C20.2264 9.99343 20.8913 11.3808 20.9879 12.8627C21.0845 14.3446 20.6052 15.8066 19.6501 16.9437L22.3501 19.6437C22.3973 19.6903 22.4349 19.7457 22.4605 19.8069C22.4861 19.868 22.4993 19.9337 22.4993 20C22.4993 20.0663 22.4861 20.1319 22.4605 20.1931C22.4349 20.2542 22.3973 20.3097 22.3501 20.3562ZM15.2501 18C16.1896 18 17.1079 17.7214 17.8891 17.1995C18.6702 16.6775 19.279 15.9357 19.6385 15.0677C19.998 14.1998 20.0921 13.2447 19.9088 12.3233C19.7255 11.4019 19.2732 10.5555 18.6089 9.89122C17.9446 9.22692 17.0982 8.77452 16.1768 8.59124C15.2554 8.40797 14.3003 8.50203 13.4324 8.86155C12.5644 9.22106 11.8226 9.82988 11.3006 10.611C10.7787 11.3922 10.5001 12.3105 10.5001 13.25C10.5018 14.5092 11.0027 15.7165 11.8932 16.6069C12.7836 17.4973 13.9908 17.9983 15.2501 18Z" fill="white" fill-opacity="0.2"/>
<path d="M34.8011 11.3636C34.7415 10.8598 34.4995 10.4688 34.0753 10.1903C33.651 9.91193 33.1307 9.77273 32.5142 9.77273C32.0634 9.77273 31.669 9.84564 31.331 9.99148C30.9962 10.1373 30.7344 10.3378 30.5455 10.593C30.3598 10.8482 30.267 11.1383 30.267 11.4631C30.267 11.7348 30.3317 11.9685 30.4609 12.1641C30.5935 12.3563 30.7625 12.517 30.968 12.6463C31.1735 12.7723 31.389 12.8767 31.6143 12.9595C31.8397 13.0391 32.0469 13.1037 32.2358 13.1534L33.2699 13.4318C33.535 13.5014 33.83 13.5975 34.1548 13.7202C34.483 13.8428 34.7962 14.0102 35.0945 14.2223C35.3961 14.4311 35.6446 14.6996 35.8402 15.0277C36.0357 15.3558 36.1335 15.7585 36.1335 16.2358C36.1335 16.786 35.9893 17.2831 35.701 17.7273C35.416 18.1714 34.9983 18.5244 34.4482 18.7862C33.9013 19.0481 33.2367 19.179 32.4545 19.179C31.7254 19.179 31.094 19.0613 30.5604 18.826C30.0301 18.5907 29.6125 18.2625 29.3075 17.8416C29.0059 17.4207 28.8352 16.9318 28.7955 16.375H30.0682C30.1013 16.7595 30.2306 17.0777 30.456 17.3295C30.6847 17.5781 30.973 17.7637 31.321 17.8864C31.6723 18.0057 32.0502 18.0653 32.4545 18.0653C32.9252 18.0653 33.3478 17.9891 33.7223 17.8366C34.0968 17.6809 34.3935 17.4654 34.6122 17.1903C34.831 16.9119 34.9403 16.5871 34.9403 16.2159C34.9403 15.8778 34.8459 15.6027 34.657 15.3906C34.468 15.1785 34.2195 15.0062 33.9112 14.8736C33.603 14.741 33.2699 14.625 32.9119 14.5256L31.6591 14.1676C30.8636 13.9389 30.2339 13.6125 29.7699 13.1882C29.3059 12.764 29.0739 12.2088 29.0739 11.5227C29.0739 10.9527 29.228 10.4555 29.5362 10.0312C29.8478 9.60369 30.2654 9.27225 30.7891 9.03693C31.3161 8.7983 31.9044 8.67898 32.554 8.67898C33.2102 8.67898 33.7936 8.79664 34.304 9.03196C34.8144 9.26397 35.2188 9.58215 35.517 9.98651C35.8187 10.3909 35.9777 10.8499 35.9943 11.3636H34.8011ZM41.2033 19.1591C40.4675 19.1591 39.8328 18.9967 39.2992 18.6719C38.7689 18.3438 38.3596 17.8864 38.0712 17.2997C37.7862 16.7098 37.6436 16.0237 37.6436 15.2415C37.6436 14.4593 37.7862 13.7699 38.0712 13.1733C38.3596 12.5734 38.7606 12.1061 39.2743 11.7713C39.7914 11.4332 40.3946 11.2642 41.084 11.2642C41.4817 11.2642 41.8745 11.3305 42.2623 11.4631C42.65 11.5956 43.003 11.8111 43.3212 12.1094C43.6394 12.4044 43.8929 12.7955 44.0819 13.2827C44.2708 13.7699 44.3652 14.3698 44.3652 15.0824V15.5795H38.4789V14.5653H43.1721C43.1721 14.1345 43.0859 13.75 42.9135 13.4119C42.7445 13.0739 42.5025 12.8071 42.1877 12.6115C41.8761 12.416 41.5082 12.3182 41.084 12.3182C40.6167 12.3182 40.2123 12.4342 39.8709 12.6662C39.5328 12.8949 39.2727 13.1932 39.0904 13.5611C38.9081 13.929 38.8169 14.3234 38.8169 14.7443V15.4205C38.8169 15.9972 38.9164 16.486 39.1152 16.8871C39.3174 17.2848 39.5975 17.5881 39.9554 17.7969C40.3134 18.0024 40.7293 18.1051 41.2033 18.1051C41.5115 18.1051 41.79 18.062 42.0385 17.9759C42.2904 17.8864 42.5075 17.7538 42.6898 17.5781C42.8721 17.3991 43.013 17.1771 43.1124 16.9119L44.2459 17.2301C44.1266 17.6146 43.9261 17.9527 43.6444 18.2443C43.3626 18.5327 43.0146 18.758 42.6003 18.9205C42.186 19.0795 41.7203 19.1591 41.2033 19.1591ZM49.0336 19.1591C48.3972 19.1591 47.8354 18.9983 47.3482 18.6768C46.861 18.352 46.4798 17.8946 46.2047 17.3047C45.9296 16.7114 45.7921 16.0104 45.7921 15.2017C45.7921 14.3996 45.9296 13.7036 46.2047 13.1136C46.4798 12.5237 46.8626 12.0679 47.3532 11.7464C47.8437 11.425 48.4105 11.2642 49.0534 11.2642C49.5506 11.2642 49.9434 11.3471 50.2317 11.5128C50.5234 11.6752 50.7454 11.8608 50.8979 12.0696C51.0537 12.2751 51.1747 12.4441 51.2608 12.5767H51.3603V11.3636H52.5336V19H51.4V17.8267H51.2608C51.1747 17.9659 51.052 18.1416 50.8929 18.3537C50.7338 18.5625 50.5068 18.7498 50.2118 18.9155C49.9168 19.0779 49.5241 19.1591 49.0336 19.1591ZM49.1926 18.1051C49.6633 18.1051 50.061 17.9825 50.3858 17.7372C50.7106 17.4886 50.9576 17.1456 51.1266 16.7081C51.2956 16.2673 51.3801 15.7585 51.3801 15.1818C51.3801 14.6117 51.2973 14.1129 51.1316 13.6854C50.9659 13.2545 50.7206 12.9197 50.3958 12.6811C50.071 12.4392 49.6699 12.3182 49.1926 12.3182C48.6955 12.3182 48.2812 12.4458 47.9498 12.701C47.6216 12.9529 47.3747 13.2959 47.209 13.7301C47.0466 14.161 46.9654 14.6449 46.9654 15.1818C46.9654 15.7254 47.0482 16.2192 47.214 16.6634C47.383 17.1042 47.6316 17.4555 47.9597 17.7173C48.2911 17.9759 48.7021 18.1051 49.1926 18.1051ZM54.8453 19V11.3636H55.9789V12.517H56.0584C56.1976 12.1392 56.4495 11.8326 56.8141 11.5973C57.1787 11.362 57.5897 11.2443 58.0471 11.2443C58.1332 11.2443 58.2409 11.246 58.3702 11.2493C58.4995 11.2526 58.5972 11.2576 58.6635 11.2642V12.4574C58.6238 12.4474 58.5326 12.4325 58.3901 12.4126C58.2509 12.3894 58.1034 12.3778 57.9476 12.3778C57.5764 12.3778 57.245 12.4557 56.9533 12.6115C56.665 12.764 56.4363 12.9761 56.2672 13.2479C56.1015 13.5163 56.0186 13.8229 56.0186 14.1676V19H54.8453ZM62.9242 19.1591C62.2083 19.1591 61.5918 18.9901 61.0748 18.652C60.5577 18.3139 60.16 17.8482 59.8816 17.255C59.6032 16.6617 59.464 15.9839 59.464 15.2216C59.464 14.446 59.6065 13.7616 59.8915 13.1683C60.1799 12.5717 60.5809 12.1061 61.0946 11.7713C61.6117 11.4332 62.2149 11.2642 62.9043 11.2642C63.4412 11.2642 63.9251 11.3636 64.356 11.5625C64.7869 11.7614 65.1399 12.0398 65.415 12.3977C65.69 12.7557 65.8607 13.1733 65.927 13.6506H64.7537C64.6642 13.3026 64.4654 12.9943 64.1571 12.7259C63.8522 12.4541 63.4412 12.3182 62.9242 12.3182C62.4668 12.3182 62.0658 12.4375 61.7211 12.6761C61.3797 12.9115 61.1129 13.2446 60.9206 13.6754C60.7317 14.103 60.6373 14.6051 60.6373 15.1818C60.6373 15.7718 60.7301 16.2855 60.9157 16.723C61.1046 17.1605 61.3697 17.5002 61.7111 17.7422C62.0558 17.9841 62.4602 18.1051 62.9242 18.1051C63.2291 18.1051 63.5059 18.0521 63.7544 17.946C64.003 17.84 64.2135 17.6875 64.3858 17.4886C64.5582 17.2898 64.6808 17.0511 64.7537 16.7727H65.927C65.8607 17.2235 65.6967 17.6295 65.4348 17.9908C65.1763 18.3487 64.8333 18.6338 64.4057 18.8459C63.9815 19.0547 63.4876 19.1591 62.9242 19.1591ZM68.8155 14.4062V19H67.6422V8.81818H68.8155V12.5568H68.915C69.0939 12.1624 69.3624 11.8492 69.7203 11.6172C70.0816 11.3819 70.5622 11.2642 71.1621 11.2642C71.6825 11.2642 72.1382 11.3686 72.5293 11.5774C72.9204 11.7829 73.2237 12.0994 73.4391 12.527C73.6578 12.9512 73.7672 13.4915 73.7672 14.1477V19H72.5939V14.2273C72.5939 13.6207 72.4365 13.1518 72.1216 12.8203C71.8101 12.4856 71.3775 12.3182 70.824 12.3182C70.4396 12.3182 70.0949 12.3994 69.79 12.5618C69.4883 12.7242 69.2497 12.9612 69.074 13.2727C68.9017 13.5843 68.8155 13.9621 68.8155 14.4062Z" fill="white" fill-opacity="0.2"/>
<path d="M135.848 19.2287C135.454 19.2287 135.092 19.1326 134.764 18.9403C134.436 18.7448 134.174 18.483 133.979 18.1548C133.786 17.8267 133.69 17.4654 133.69 17.071C133.69 16.6733 133.786 16.3104 133.979 15.9822C134.174 15.6541 134.436 15.3923 134.764 15.1967C135.092 15.0012 135.454 14.9034 135.848 14.9034H137.001V12.9048H135.848C135.454 12.9048 135.092 12.8087 134.764 12.6165C134.436 12.4209 134.174 12.1607 133.979 11.8359C133.786 11.5078 133.69 11.1449 133.69 10.7472C133.69 10.3494 133.786 9.98816 133.979 9.66335C134.174 9.33523 134.436 9.07505 134.764 8.88281C135.092 8.68726 135.454 8.58949 135.848 8.58949C136.246 8.58949 136.609 8.68726 136.937 8.88281C137.265 9.07505 137.527 9.33523 137.722 9.66335C137.918 9.98816 138.016 10.3494 138.016 10.7472V11.8906H140.014V10.7472C140.014 10.3494 140.11 9.98816 140.303 9.66335C140.498 9.33523 140.758 9.07505 141.083 8.88281C141.411 8.68726 141.774 8.58949 142.172 8.58949C142.57 8.58949 142.931 8.68726 143.256 8.88281C143.584 9.07505 143.844 9.33523 144.036 9.66335C144.232 9.98816 144.33 10.3494 144.33 10.7472C144.33 11.1449 144.232 11.5078 144.036 11.8359C143.844 12.1607 143.584 12.4209 143.256 12.6165C142.931 12.8087 142.57 12.9048 142.172 12.9048H141.028V14.9034H142.172C142.57 14.9034 142.931 15.0012 143.256 15.1967C143.584 15.3923 143.844 15.6541 144.036 15.9822C144.232 16.3104 144.33 16.6733 144.33 17.071C144.33 17.4654 144.232 17.8267 144.036 18.1548C143.844 18.483 143.584 18.7448 143.256 18.9403C142.931 19.1326 142.57 19.2287 142.172 19.2287C141.774 19.2287 141.411 19.1326 141.083 18.9403C140.758 18.7448 140.498 18.483 140.303 18.1548C140.11 17.8267 140.014 17.4654 140.014 17.071V15.9176H138.016V17.071C138.016 17.4654 137.918 17.8267 137.722 18.1548C137.527 18.483 137.265 18.7448 136.937 18.9403C136.609 19.1326 136.246 19.2287 135.848 19.2287ZM135.848 18.2145C136.06 18.2145 136.252 18.1631 136.425 18.0604C136.6 17.9576 136.74 17.8201 136.842 17.6477C136.948 17.4721 137.001 17.2798 137.001 17.071V15.9176H135.848C135.639 15.9176 135.447 15.9706 135.271 16.0767C135.099 16.1795 134.961 16.3187 134.859 16.4943C134.756 16.6667 134.705 16.8589 134.705 17.071C134.705 17.2798 134.756 17.4721 134.859 17.6477C134.961 17.8201 135.099 17.9576 135.271 18.0604C135.447 18.1631 135.639 18.2145 135.848 18.2145ZM135.848 11.8906H137.001V10.7472C137.001 10.535 136.948 10.3428 136.842 10.1705C136.74 9.99811 136.6 9.86056 136.425 9.75781C136.252 9.65507 136.06 9.60369 135.848 9.60369C135.639 9.60369 135.447 9.65507 135.271 9.75781C135.099 9.86056 134.961 9.99811 134.859 10.1705C134.756 10.3428 134.705 10.535 134.705 10.7472C134.705 10.9593 134.756 11.1532 134.859 11.3288C134.961 11.5012 135.099 11.6387 135.271 11.7415C135.447 11.8409 135.639 11.8906 135.848 11.8906ZM141.028 11.8906H142.172C142.384 11.8906 142.576 11.8409 142.749 11.7415C142.921 11.6387 143.058 11.5012 143.161 11.3288C143.264 11.1532 143.315 10.9593 143.315 10.7472C143.315 10.535 143.264 10.3428 143.161 10.1705C143.058 9.99811 142.921 9.86056 142.749 9.75781C142.576 9.65507 142.384 9.60369 142.172 9.60369C141.96 9.60369 141.766 9.65507 141.59 9.75781C141.418 9.86056 141.28 9.99811 141.178 10.1705C141.078 10.3428 141.028 10.535 141.028 10.7472V11.8906ZM142.172 18.2145C142.384 18.2145 142.576 18.1631 142.749 18.0604C142.921 17.9576 143.058 17.8201 143.161 17.6477C143.264 17.4721 143.315 17.2798 143.315 17.071C143.315 16.8589 143.264 16.6667 143.161 16.4943C143.058 16.3187 142.921 16.1795 142.749 16.0767C142.576 15.9706 142.384 15.9176 142.172 15.9176H141.028V17.071C141.028 17.2798 141.078 17.4721 141.178 17.6477C141.28 17.8201 141.418 17.9576 141.59 18.0604C141.766 18.1631 141.96 18.2145 142.172 18.2145ZM138.016 14.9034H140.014V12.9048H138.016V14.9034ZM150.687 8.34091L147.406 20.5312H146.332L149.613 8.34091H150.687Z" fill="white" fill-opacity="0.2"/>
</svg>
